<svg xmlns:ns0="http://www.iki.fi/pav/software/textext/" xmlns="http://www.w3.org/2000/svg" xmlns:xlink="http://www.w3.org/1999/xlink" height="793.701" width="1122.52" viewBox="0 0 1052.3622 744.09448"><title>Venn-Diagramm einer Abbildung</title><defs><marker id="n" orient="auto" overflow="visible"><path transform="scale(-.6)" d="M8.719 4.034L-2.207.016 8.719-4.002c-1.746 2.372-1.736 5.618 0 8.036z" fill-rule="evenodd" stroke-width=".625" stroke-linejoin="round"/></marker></defs><g transform="translate(0 -308.268)"><rect ry="1.658" y="502.042" x="141.632" height="356.546" width="769.098" fill="#fff" stroke="#fff" stroke-width="3.332"/><g ns0:text="$\\mathbb{M} _{\\rm{1}}$" ns0:preamble="/home/waldgeist/data/sphinx/inkscape-preamble.tex" transform="matrix(4.5874 0 0 4.5874 -875.006 202.925)" fill="#333" stroke="#4d4d4d"><defs><symbol overflow="visible" id="a"><path d="M4.64-2.094L2.735-6.625c-.078-.203-.078-.203-.359-.203H.531c-.187 0-.328 0-.328.172s.172.172.219.172c.125 0 .39.03.61.109v5.313c0 .218 0 .656-.673.718-.187.016-.187.156-.187.172C.172 0 .328 0 .516 0h1.53c.188 0 .329 0 .329-.172 0-.094-.078-.172-.156-.172-.766-.062-.766-.484-.766-.719v-4.953l.016-.015L3.89-.203c.093.172.156.203.218.203.125 0 .141-.078.204-.203L6.75-6.031l.016.015v4.954c0 .218 0 .656-.688.718-.187.016-.187.156-.187.172 0 .172.156.172.343.172h2.657c.187 0 .328 0 .328-.172 0-.094-.078-.172-.156-.172-.766-.062-.766-.484-.766-.719v-4.703c0-.218 0-.656.672-.718.11 0 .187-.063.187-.172 0-.172-.14-.172-.328-.172H6.906c-.25 0-.281 0-.36.203zm-.296.188c.078.156.093.172.218.218L4.11-.64h-.015L1.828-6.062a1.26 1.26 0 0 0-.266-.422h.86zM1.328-.344h-.156c.016-.031.031-.062.047-.078.015-.016.015-.031.031-.031zm5.781-6.14h1.063c-.235.25-.235.515-.235.687v4.766c0 .172 0 .437.235.687H6.89c.218-.25.218-.515.218-.687z" stroke="none"/></symbol><symbol overflow="visible" id="b"><path d="M2.328-4.438c0-.187 0-.187-.203-.187-.453.438-1.078.438-1.36.438v.25c.157 0 .626 0 1-.188v3.547c0 .234 0 .328-.687.328H.812V0c.125 0 .985-.031 1.235-.031.219 0 1.094.031 1.25.031v-.25H3.03c-.703 0-.703-.094-.703-.328z" stroke="none"/></symbol></defs><use xlink:href="#a" x="223.432" y="134.765" width="1052.362" height="744.094"/><use xlink:href="#b" x="232.841" y="136.259" width="1052.362" height="744.094"/></g><g ns0:text="$\\mathbb{M} _{\\rm{2}}$" ns0:preamble="/home/waldgeist/data/sphinx/inkscape-preamble.tex" transform="matrix(4.5874 0 0 4.5874 -182.653 202.925)" fill="#333" stroke="#4d4d4d"><defs><symbol overflow="visible" id="c"><path d="M4.64-2.094L2.735-6.625c-.078-.203-.078-.203-.359-.203H.531c-.187 0-.328 0-.328.172s.172.172.219.172c.125 0 .39.03.61.109v5.313c0 .218 0 .656-.673.718-.187.016-.187.156-.187.172C.172 0 .328 0 .516 0h1.53c.188 0 .329 0 .329-.172 0-.094-.078-.172-.156-.172-.766-.062-.766-.484-.766-.719v-4.953l.016-.015L3.89-.203c.093.172.156.203.218.203.125 0 .141-.078.204-.203L6.75-6.031l.016.015v4.954c0 .218 0 .656-.688.718-.187.016-.187.156-.187.172 0 .172.156.172.343.172h2.657c.187 0 .328 0 .328-.172 0-.094-.078-.172-.156-.172-.766-.062-.766-.484-.766-.719v-4.703c0-.218 0-.656.672-.718.11 0 .187-.063.187-.172 0-.172-.14-.172-.328-.172H6.906c-.25 0-.281 0-.36.203zm-.296.188c.078.156.093.172.218.218L4.11-.64h-.015L1.828-6.062a1.26 1.26 0 0 0-.266-.422h.86zM1.328-.344h-.156c.016-.031.031-.062.047-.078.015-.016.015-.031.031-.031zm5.781-6.14h1.063c-.235.25-.235.515-.235.687v4.766c0 .172 0 .437.235.687H6.89c.218-.25.218-.515.218-.687z" stroke="none"/></symbol><symbol overflow="visible" id="d"><path d="M3.516-1.266H3.28c-.015.157-.094.563-.187.625-.047.047-.578.047-.688.047H1.125c.734-.64.984-.844 1.39-1.172.516-.406 1-.843 1-1.5 0-.843-.734-1.359-1.624-1.359-.86 0-1.454.61-1.454 1.25 0 .344.297.39.376.39.156 0 .359-.124.359-.374 0-.125-.047-.375-.406-.375.218-.485.687-.641 1.015-.641.703 0 1.063.547 1.063 1.11 0 .609-.438 1.078-.656 1.328L.516-.266C.437-.203.437-.187.437 0h2.876z" stroke="none"/></symbol></defs><use height="744.094" width="1052.362" xlink:href="#c" x="223.432" y="134.765"/><use height="744.094" width="1052.362" xlink:href="#d" x="232.841" y="136.259"/></g><circle r="137.673" cy="671.553" cx="302.572" fill="#fff" fill-opacity=".984" stroke="#000" stroke-width="2.5" stroke-linecap="round" stroke-linejoin="round"/><g transform="matrix(4.60995 0 0 4.60995 -749.907 -25.464)" ns0:text="1"><defs><symbol id="e" overflow="visible"><path d="M2.938-6.375c0-.25 0-.266-.235-.266C2.078-6 1.203-6 .891-6v.313c.203 0 .78 0 1.296-.266v5.172c0 .36-.03.469-.921.469H.953V0c.344-.031 1.203-.031 1.61-.031.39 0 1.265 0 1.609.031v-.313h-.313c-.906 0-.921-.109-.921-.468zm0 0"/></symbol></defs><use y="134.765" x="223.432" xlink:href="#e" width="100%" height="100%"/></g><g ns0:text="2" transform="matrix(4.60995 0 0 4.60995 -675.663 26.2)"><defs><symbol overflow="visible" id="f"><path d="M1.266-.766l1.062-1.03c1.547-1.376 2.14-1.907 2.14-2.907 0-1.14-.89-1.938-2.109-1.938C1.234-6.64.5-5.719.5-4.828c0 .547.5.547.531.547.172 0 .516-.11.516-.532a.513.513 0 0 0-.531-.515c-.079 0-.094 0-.125.016.218-.657.765-1.016 1.343-1.016.907 0 1.329.812 1.329 1.625 0 .797-.485 1.578-1.047 2.203L.609-.375C.5-.265.5-.235.5 0h3.703l.266-1.734h-.235C4.172-1.438 4.11-1 4-.844c-.063.078-.719.078-.938.078zm0 0"/></symbol></defs><use xlink:href="#f" x="223.432" y="134.765" width="100%" height="100%"/></g><g transform="matrix(4.60995 0 0 4.60995 -733.814 77.461)" ns0:text="3"><defs><symbol id="g" overflow="visible"><path d="M2.89-3.516c.813-.265 1.391-.953 1.391-1.75 0-.812-.875-1.375-1.828-1.375-1 0-1.765.594-1.765 1.36 0 .328.218.515.515.515.297 0 .5-.218.5-.515 0-.485-.469-.485-.61-.485.298-.5.954-.625 1.313-.625.422 0 .969.22.969 1.11 0 .125-.031.703-.281 1.14-.297.485-.64.516-.89.516a3.29 3.29 0 0 1-.392.031c-.078.016-.14.031-.14.125 0 .11.062.11.234.11h.438c.812 0 1.187.671 1.187 1.656 0 1.36-.687 1.64-1.125 1.64-.437 0-1.187-.171-1.531-.75.344.047.656-.171.656-.546a.537.537 0 0 0-.547-.563c-.25 0-.562.14-.562.578C.422-.437 1.344.22 2.437.22c1.22 0 2.126-.906 2.126-1.922 0-.813-.641-1.594-1.672-1.813zm0 0"/></symbol></defs><use y="134.765" x="223.432" xlink:href="#g" width="100%" height="100%"/></g><g ns0:text="4" ns0:preamble="/home/waldgeist/data/homepage/inkscape-preamble.tex" transform="matrix(4.60995 0 0 4.60995 -337.176 343.007)"><defs><symbol overflow="visible" id="h"><path d="M2.938-1.64v.859c0 .36-.032.469-.766.469h-.203V0c.406-.031.922-.031 1.343-.031.422 0 .938 0 1.36.031v-.313h-.219c-.734 0-.75-.109-.75-.468v-.86h.985v-.312h-.985v-4.531c0-.204 0-.266-.172-.266-.078 0-.11 0-.187.125L.28-1.953v.312zm.046-.313H.563l2.421-3.719zm0 0"/></symbol></defs><use height="100%" width="100%" xlink:href="#h" x="118.801" y="83.403"/></g><g transform="matrix(4.60995 0 0 4.60995 -207.764 378.302)" ns0:preamble="/home/waldgeist/data/homepage/inkscape-preamble.tex" ns0:text="5"><defs><symbol id="i" overflow="visible"><path d="M4.469-2c0-1.188-.813-2.188-1.89-2.188-.47 0-.907.157-1.267.516v-1.953c.204.063.532.125.844.125 1.235 0 1.938-.906 1.938-1.031 0-.063-.032-.11-.11-.11 0 0-.03 0-.078.032a3.22 3.22 0 0 1-1.36.296c-.39 0-.858-.078-1.327-.28-.078-.032-.094-.032-.11-.032C1-6.625 1-6.547 1-6.391v2.954c0 .171 0 .25.14.25.079 0 .094-.016.141-.079.11-.156.469-.703 1.282-.703.515 0 .765.453.843.64.156.376.188.75.188 1.25 0 .36 0 .954-.25 1.376-.235.39-.61.64-1.063.64-.719 0-1.297-.53-1.469-1.109.032 0 .063.016.172.016.329 0 .5-.25.5-.485 0-.25-.171-.5-.5-.5-.14 0-.484.079-.484.532C.5-.75 1.188.219 2.297.219 3.453.219 4.469-.734 4.469-2zm0 0"/></symbol></defs><use y="83.403" x="118.801" xlink:href="#i" width="100%" height="100%"/></g><circle cx="749.51" cy="671.553" r="137.673" fill="#fff" fill-opacity=".984" stroke="#000" stroke-width="2.5" stroke-linecap="round" stroke-linejoin="round"/><g ns0:text="6" transform="matrix(4.60995 0 0 4.60995 -287.622 -34.829)"><defs><symbol overflow="visible" id="j"><path d="M1.313-3.266v-.25c0-2.515 1.234-2.875 1.75-2.875.234 0 .656.063.874.407-.156 0-.546 0-.546.437 0 .313.234.469.453.469.156 0 .469-.094.469-.484 0-.594-.438-1.079-1.266-1.079C1.766-6.64.422-5.359.422-3.156.422-.484 1.578.219 2.5.219c1.11 0 2.063-.938 2.063-2.25 0-1.266-.891-2.219-2-2.219-.672 0-1.047.5-1.25.984zM2.5-.062c-.625 0-.922-.594-.984-.75-.188-.47-.188-1.266-.188-1.438 0-.781.328-1.781 1.219-1.781.172 0 .625 0 .937.625.172.36.172.875.172 1.36 0 .483 0 .983-.172 1.343-.296.594-.75.64-.984.64zm0 0"/></symbol></defs><use xlink:href="#j" x="223.432" y="134.765" width="100%" height="100%"/></g><g transform="matrix(4.60995 0 0 4.60995 -247.438 72.361)" ns0:text="7"><defs><symbol id="k" overflow="visible"><path d="M4.75-6.078c.078-.11.078-.125.078-.344H2.406c-1.203 0-1.234-.125-1.265-.312H.89L.562-4.688h.25c.032-.156.11-.78.25-.906.063-.062.844-.062.97-.062h2.062c-.11.156-.89 1.25-1.11 1.578C2.078-2.734 1.75-1.344 1.75-.328c0 .094 0 .547.469.547.453 0 .453-.453.453-.547v-.516c0-.547.031-1.094.11-1.625.046-.234.171-1.094.624-1.703zm0 0"/></symbol></defs><use y="134.765" x="223.432" xlink:href="#k" width="100%" height="100%"/></g><g ns0:text="8" transform="matrix(4.60995 0 0 4.60995 -368.94 31.057)"><defs><symbol overflow="visible" id="l"><path d="M1.625-4.563c-.453-.296-.5-.625-.5-.796 0-.61.656-1.032 1.36-1.032.718 0 1.359.516 1.359 1.235 0 .578-.39 1.047-.985 1.39zm1.453.954c.719-.375 1.203-.891 1.203-1.547 0-.922-.875-1.485-1.781-1.485-1 0-1.813.735-1.813 1.672 0 .172.016.625.438 1.094.11.11.484.36.734.531C1.281-3.047.422-2.5.422-1.5.422-.453 1.438.219 2.484.219c1.125 0 2.079-.828 2.079-1.89 0-.36-.11-.813-.5-1.235-.188-.203-.344-.297-.985-.703zm-1 .421l1.235.782c.28.187.75.484.75 1.094 0 .734-.75 1.25-1.563 1.25C1.64-.063.922-.672.922-1.5c0-.578.312-1.219 1.156-1.688zm0 0"/></symbol></defs><use xlink:href="#l" x="223.432" y="134.765" width="100%" height="100%"/></g><g transform="matrix(4.60995 0 0 4.60995 -292.764 155.103)" ns0:text="9"><defs><symbol id="m" overflow="visible"><path d="M3.656-3.172v.328c0 2.328-1.031 2.781-1.61 2.781-.171 0-.718-.015-.983-.359.437 0 .515-.281.515-.453 0-.313-.234-.453-.453-.453-.156 0-.453.078-.453.469 0 .671.531 1.078 1.375 1.078 1.297 0 2.515-1.36 2.515-3.5 0-2.688-1.156-3.36-2.046-3.36-.547 0-1.032.188-1.454.625-.421.454-.64.875-.64 1.625 0 1.235.875 2.22 1.984 2.22.61 0 1.016-.423 1.25-1zm-1.234.766c-.156 0-.625 0-.922-.625-.188-.375-.188-.86-.188-1.36 0-.53 0-1 .22-1.375.265-.5.64-.625.984-.625.468 0 .796.344.968.782.11.328.157.953.157 1.406 0 .828-.344 1.797-1.22 1.797zm0 0"/></symbol></defs><use y="134.765" x="223.432" xlink:href="#m" width="100%" height="100%"/></g><path d="M383.687 631.523c118.19-26.68 205.067-5.29 273.814 11.75M368.209 747.2c107.286-26.93 308.964 1.438 357.081 11.151M310.005 578.045c141.958-40.348 354.808-26.008 423.554-8.967M310.005 578.045c193.276-44.164 307.173 26.518 349.873 47.997M325.812 683.98c104.793-29.315 253.546-22.644 450.18-4.455" fill="none" stroke="#000" stroke-width="1.5" stroke-linecap="round" marker-end="url(#n)"/></g></svg>