<svg xmlns:ns0="http://www.iki.fi/pav/software/textext/" xmlns="http://www.w3.org/2000/svg" xmlns:xlink="http://www.w3.org/1999/xlink" width="744.094" height="1052.362"><title>Normalparabel</title><defs><marker id="s" orient="auto" overflow="visible"><path transform="rotate(180) scale(.6)" d="M8.719 4.034L-2.207.016 8.719-4.002c-1.746 2.372-1.736 5.618 0 8.036z" fill-rule="evenodd" stroke-width=".625" stroke-linejoin="round"/></marker><marker id="a" orient="auto" overflow="visible"><path d="M2.308 0l-3.46 2v-4l3.46 2z" fill-rule="evenodd" stroke="#000" stroke-width=".4pt"/></marker></defs><g transform="translate(-575.239 128.115) scale(4.62289)" fill="green"><use height="1052.362" width="744.094" xlink:href="#textext-082fa4b4-3" x="231.736" y="134.765"/><use height="1052.362" width="744.094" xlink:href="#textext-082fa4b4-3" x="231.736" y="134.765"/><g ns0:text="$\\Delta \\vec{r} = \\vec{r}_{\\rm{2}} - \\vec{r}_{\\rm{1}} $" ns0:preamble="/home/waldgeist/data/sphinx/test.tex"><use height="1052.362" width="744.094" xlink:href="#textext-082fa4b4-0" x="223.432" y="134.765"/><use height="1052.362" width="744.094" xlink:href="#textext-082fa4b4-2" x="231.417" y="134.765"/><use height="1052.362" width="744.094" xlink:href="#textext-082fa4b4-3" x="231.736" y="134.765"/><use height="1052.362" width="744.094" xlink:href="#textext-082fa4b4-1" x="239.273" y="134.765"/><use height="1052.362" width="744.094" xlink:href="#textext-082fa4b4-2" x="249.472" y="134.765"/><use height="1052.362" width="744.094" xlink:href="#textext-082fa4b4-3" x="249.791" y="134.765"/><use height="1052.362" width="744.094" xlink:href="#textext-082fa4b4-4" x="254.284" y="136.259"/><use height="1052.362" width="744.094" xlink:href="#textext-082fa4b4-6" x="260.967" y="134.765"/><use height="1052.362" width="744.094" xlink:href="#textext-082fa4b4-2" x="270.612" y="134.765"/><use height="1052.362" width="744.094" xlink:href="#textext-082fa4b4-3" x="270.931" y="134.765"/><use height="1052.362" width="744.094" xlink:href="#textext-082fa4b4-5" x="275.425" y="136.259"/></g><g ns0:text="$\\Delta \\vec{r} = \\vec{r}_{\\rm{2}} - \\vec{r}_{\\rm{1}} $" ns0:preamble="/home/waldgeist/data/sphinx/test.tex"><use height="1052.362" width="744.094" xlink:href="#textext-082fa4b4-0" x="223.432" y="134.765"/><use height="1052.362" width="744.094" xlink:href="#textext-082fa4b4-2" x="231.417" y="134.765"/><use height="1052.362" width="744.094" xlink:href="#textext-082fa4b4-3" x="231.736" y="134.765"/><use height="1052.362" width="744.094" xlink:href="#textext-082fa4b4-1" x="239.273" y="134.765"/><use height="1052.362" width="744.094" xlink:href="#textext-082fa4b4-2" x="249.472" y="134.765"/><use height="1052.362" width="744.094" xlink:href="#textext-082fa4b4-3" x="249.791" y="134.765"/><use height="1052.362" width="744.094" xlink:href="#textext-082fa4b4-4" x="254.284" y="136.259"/><use height="1052.362" width="744.094" xlink:href="#textext-082fa4b4-6" x="260.967" y="134.765"/><use height="1052.362" width="744.094" xlink:href="#textext-082fa4b4-2" x="270.612" y="134.765"/><use height="1052.362" width="744.094" xlink:href="#textext-082fa4b4-3" x="270.931" y="134.765"/><use height="1052.362" width="744.094" xlink:href="#textext-082fa4b4-5" x="275.425" y="136.259"/></g><g ns0:text="$\\Delta \\vec{r} = \\vec{r}_{\\rm{2}} - \\vec{r}_{\\rm{1}} $" ns0:preamble="/home/waldgeist/data/sphinx/test.tex"><use height="1052.362" width="744.094" xlink:href="#textext-082fa4b4-0" x="223.432" y="134.765"/><use height="1052.362" width="744.094" xlink:href="#textext-082fa4b4-2" x="231.417" y="134.765"/><use height="1052.362" width="744.094" xlink:href="#textext-082fa4b4-3" x="231.736" y="134.765"/><use height="1052.362" width="744.094" xlink:href="#textext-082fa4b4-1" x="239.273" y="134.765"/><use height="1052.362" width="744.094" xlink:href="#textext-082fa4b4-2" x="249.472" y="134.765"/><use height="1052.362" width="744.094" xlink:href="#textext-082fa4b4-3" x="249.791" y="134.765"/><use height="1052.362" width="744.094" xlink:href="#textext-082fa4b4-4" x="254.284" y="136.259"/><use height="1052.362" width="744.094" xlink:href="#textext-082fa4b4-6" x="260.967" y="134.765"/><use height="1052.362" width="744.094" xlink:href="#textext-082fa4b4-2" x="270.612" y="134.765"/><use height="1052.362" width="744.094" xlink:href="#textext-082fa4b4-3" x="270.931" y="134.765"/><use height="1052.362" width="744.094" xlink:href="#textext-082fa4b4-5" x="275.425" y="136.259"/></g></g><path fill="#fff" stroke="#fff" stroke-width="3" stroke-linecap="round" d="M3.865 140.605h736.364v771.152H3.865z"/><path fill="#fff" stroke="#fff" stroke-width="2" stroke-linecap="round" d="M3.865 140.605h736.364v771.152H3.865z"/><g stroke="#ccc" stroke-width="1.019" fill="none"><g stroke-width="2.509"><path d="M132.012 227.272V825.09M191.794 227.272V825.09M251.575 227.272V825.09M311.357 227.272V825.09M371.139 227.272V825.09M430.92 227.272V825.09M490.702 227.272V825.09M550.484 227.272V825.09M610.266 227.272V825.09" stroke-width="1.49993038"/></g><g stroke-width="2.509"><path d="M72.23 287.054h597.817M72.23 346.836h597.817M72.23 406.618h597.817M72.23 466.4h597.817M72.23 526.181h597.817M72.23 585.963h597.817M72.23 645.745h597.817M72.23 705.526h597.817M72.23 765.308h597.817" stroke-width="1.49993038"/></g><g stroke-width=".836"><path d="M78.208 227.272V825.09M84.186 227.272V825.09M90.165 227.272V825.09M96.143 227.272V825.09M102.121 227.272V825.09M108.1 227.272V825.09M114.077 227.272V825.09M120.055 227.272V825.09M126.034 227.272V825.09M137.99 227.272V825.09M143.968 227.272V825.09M149.946 227.272V825.09M155.925 227.272V825.09M161.903 227.272V825.09M167.88 227.272V825.09M173.859 227.272V825.09M179.837 227.272V825.09M185.815 227.272V825.09M197.772 227.272V825.09M203.75 227.272V825.09M209.728 227.272V825.09M215.706 227.272V825.09M221.684 227.272V825.09M227.663 227.272V825.09M233.64 227.272V825.09M239.619 227.272V825.09M245.597 227.272V825.09M257.553 227.272V825.09M263.532 227.272V825.09M269.51 227.272V825.09M275.488 227.272V825.09M281.466 227.272V825.09M287.444 227.272V825.09M293.422 227.272V825.09M299.4 227.272V825.09M305.379 227.272V825.09M317.335 227.272V825.09M323.313 227.272V825.09M329.292 227.272V825.09M335.27 227.272V825.09M341.248 227.272V825.09M347.226 227.272V825.09M353.204 227.272V825.09M359.182 227.272V825.09M365.16 227.272V825.09M377.117 227.272V825.09M383.095 227.272V825.09M389.073 227.272V825.09M395.051 227.272V825.09M401.03 227.272V825.09M407.008 227.272V825.09M412.986 227.272V825.09M418.964 227.272V825.09M424.942 227.272V825.09M436.899 227.272V825.09M442.877 227.272V825.09M448.855 227.272V825.09M454.833 227.272V825.09M460.811 227.272V825.09M466.79 227.272V825.09M472.768 227.272V825.09M478.746 227.272V825.09M484.724 227.272V825.09M496.68 227.272V825.09M502.659 227.272V825.09M508.637 227.272V825.09M514.615 227.272V825.09M520.593 227.272V825.09M526.571 227.272V825.09M532.55 227.272V825.09M538.528 227.272V825.09M544.506 227.272V825.09M556.462 227.272V825.09M562.44 227.272V825.09M568.418 227.272V825.09M574.397 227.272V825.09M580.375 227.272V825.09M586.353 227.272V825.09M592.331 227.272V825.09M598.31 227.272V825.09M604.287 227.272V825.09M616.244 227.272V825.09M622.222 227.272V825.09M628.2 227.272V825.09M634.178 227.272V825.09M640.157 227.272V825.09M646.135 227.272V825.09M652.113 227.272V825.09M658.091 227.272V825.09M664.07 227.272V825.09" stroke-width=".49977752"/></g><g stroke-width=".836"><path d="M72.23 233.25h597.817M72.23 239.229h597.817M72.23 245.207h597.817M72.23 251.185h597.817M72.23 257.163h597.817M72.23 263.141h597.817M72.23 269.12h597.817M72.23 275.098h597.817M72.23 281.076h597.817M72.23 293.032h597.817M72.23 299.01h597.817M72.23 304.989h597.817M72.23 310.967h597.817M72.23 316.945h597.817M72.23 322.923h597.817M72.23 328.901h597.817M72.23 334.88h597.817M72.23 340.858h597.817M72.23 352.814h597.817M72.23 358.792h597.817M72.23 364.77h597.817M72.23 370.749h597.817M72.23 376.727h597.817M72.23 382.705h597.817M72.23 388.683h597.817M72.23 394.661h597.817M72.23 400.64h597.817M72.23 412.596h597.817M72.23 418.574h597.817M72.23 424.552h597.817M72.23 430.53h597.817M72.23 436.508h597.817M72.23 442.487h597.817M72.23 448.465h597.817M72.23 454.443h597.817M72.23 460.421h597.817M72.23 472.378h597.817M72.23 478.356h597.817M72.23 484.334h597.817M72.23 490.312h597.817M72.23 496.29h597.817M72.23 502.268h597.817M72.23 508.247h597.817M72.23 514.225h597.817M72.23 520.203h597.817M72.23 532.16h597.817M72.23 538.137h597.817M72.23 544.116h597.817M72.23 550.094h597.817M72.23 556.072h597.817M72.23 562.05h597.817M72.23 568.028h597.817M72.23 574.006h597.817M72.23 579.985h597.817M72.23 591.941h597.817M72.23 597.92h597.817M72.23 603.897h597.817M72.23 609.876h597.817M72.23 615.854h597.817M72.23 621.832h597.817M72.23 627.81h597.817M72.23 633.788h597.817M72.23 639.766h597.817M72.23 651.723h597.817M72.23 657.7h597.817M72.23 663.68h597.817M72.23 669.657h597.817M72.23 675.635h597.817M72.23 681.614h597.817M72.23 687.592h597.817M72.23 693.57h597.817M72.23 699.548h597.817M72.23 711.504h597.817M72.23 717.483h597.817M72.23 723.46h597.817M72.23 729.439h597.817M72.23 735.417h597.817M72.23 741.395h597.817M72.23 747.373h597.817M72.23 753.352h597.817M72.23 759.33h597.817M72.23 771.286h597.817M72.23 777.264h597.817M72.23 783.243h597.817M72.23 789.22h597.817M72.23 795.199h597.817M72.23 801.177h597.817M72.23 807.155h597.817M72.23 813.133h597.817M72.23 819.112h597.817" stroke-width=".49977752"/></g><path stroke-width="1.49993038" d="M72.23 227.272h597.817V825.09H72.23z"/></g><path d="M353.168 182.503c.191-.575.191-.639.191-.958 0-.703-.575-1.086-1.214-1.086-.383 0-1.022.255-1.405.83-.064.256-.448 1.47-.575 2.237-.32 1.022-.575 2.172-.83 3.258l-1.854 7.348c-.128.575-1.917 3.45-4.6 3.45-2.044 0-2.492-1.79-2.492-3.323 0-1.852.703-4.408 2.045-7.986.639-1.661.83-2.108.83-2.939 0-1.789-1.277-3.322-3.322-3.322-3.897 0-5.367 5.942-5.367 6.261 0 .447.384.447.447.447.448 0 .448-.128.64-.766 1.15-3.834 2.747-5.048 4.152-5.048.32 0 1.023 0 1.023 1.278 0 1.022-.448 2.108-.703 2.875-1.661 4.345-2.364 6.645-2.364 8.561 0 3.642 2.555 4.856 4.983 4.856 1.598 0 2.94-.703 4.09-1.853-.512 2.109-1.023 4.153-2.62 6.326-1.086 1.341-2.62 2.555-4.473 2.555-.575 0-2.427-.128-3.13-1.725.639 0 1.214 0 1.725-.511.447-.32.83-.894.83-1.661 0-1.278-1.086-1.406-1.47-1.406-.957 0-2.3.64-2.3 2.62 0 2.044 1.79 3.578 4.345 3.578 4.153 0 8.37-3.706 9.52-8.306zm0 0"/><g fill="none" stroke="#000" stroke-width=".948"><path d="M383.298 406.674H358.98M383.298 346.892H358.98M383.298 287.11H358.98M383.298 227.329H358.98M383.298 586.02H358.98M383.298 645.8H358.98M383.298 705.583H358.98M383.298 765.364H358.98M383.298 825.146H358.98" stroke-width="1.55896704"/></g><path d="M381.019 466.456h-23.913" fill="none" stroke="#000" stroke-width="2"/><path d="M712.712 550.09c.255-1.023 1.214-4.793 4.025-4.793.191 0 1.214 0 2.044.511-1.15.256-1.916 1.214-1.916 2.237 0 .638.447 1.405 1.533 1.405.894 0 2.172-.703 2.172-2.364 0-2.108-2.364-2.683-3.77-2.683-2.363 0-3.769 2.172-4.28 3.067-1.022-2.684-3.195-3.067-4.408-3.067-4.217 0-6.581 5.239-6.581 6.261 0 .447.447.447.51.447.32 0 .448-.127.512-.447 1.406-4.344 4.089-5.367 5.495-5.367.766 0 2.172.384 2.172 2.748 0 1.277-.703 3.96-2.172 9.711-.64 2.492-2.109 4.217-3.898 4.217-.255 0-1.15 0-2.044-.511 1.022-.256 1.916-1.086 1.916-2.236 0-1.087-.894-1.406-1.469-1.406-1.278 0-2.236 1.022-2.236 2.364 0 1.853 1.98 2.683 3.77 2.683 2.747 0 4.216-2.875 4.28-3.066.511 1.469 1.98 3.066 4.409 3.066 4.216 0 6.516-5.239 6.516-6.261 0-.447-.319-.447-.447-.447-.383 0-.447.191-.575.447-1.342 4.408-4.089 5.367-5.367 5.367-1.597 0-2.236-1.278-2.236-2.684 0-.894.192-1.789.64-3.578zm0 0"/><path d="M25.024 526.181H711.08" id="r" fill="none" stroke="#000" stroke-width="3" marker-end="url(#a)"/><path id="b" d="M430.92 513.912v23.912" fill="none" stroke="#000" stroke-width="2"/><use xlink:href="#b" transform="translate(59.782 -.483)" width="744.094" height="1052.362"/><use xlink:href="#b" transform="translate(119.563)" width="744.094" height="1052.362"/><use xlink:href="#b" transform="translate(179.345)" width="744.094" height="1052.362"/><use xlink:href="#b" transform="translate(-239.127 -.604)" width="744.094" height="1052.362"/><use xlink:href="#b" transform="translate(-298.909 -.483)" width="744.094" height="1052.362"/><use xlink:href="#b" transform="translate(-358.69)" width="744.094" height="1052.362"/><use height="1052.362" width="744.094" transform="translate(-179.345 -.248)" xlink:href="#b"/><use height="744.094" width="1052.362" transform="translate(-119.563 -.063)" xlink:href="#b"/><use height="744.094" width="1052.362" transform="translate(239.127 -.667)" xlink:href="#b"/><g fill="#4d4d4d" stroke="green" stroke-width="1.18"><g ns0:text="$1$" ns0:preamble="/home/waldgeist/data/sphinx/test.tex" transform="matrix(2.5424 0 0 2.5424 -143.646 216.068)"><defs><symbol overflow="visible" id="c"><path d="M2.938-6.375c0-.25 0-.266-.235-.266C2.078-6 1.203-6 .891-6v.313c.203 0 .78 0 1.296-.266v5.172c0 .36-.03.469-.921.469H.953V0c.344-.031 1.203-.031 1.61-.031.39 0 1.265 0 1.609.031v-.313h-.313c-.906 0-.921-.109-.921-.468zm0 0" stroke="none"/></symbol></defs><use xlink:href="#c" x="223.432" y="134.765" width="744.094" height="1052.362"/></g><g transform="matrix(2.5424 0 0 2.5424 -283.164 216.068)" ns0:preamble="/home/waldgeist/data/sphinx/test.tex" ns0:text="$-1$"><defs><symbol id="d" overflow="visible"><path d="M6.563-2.297c.171 0 .359 0 .359-.203 0-.188-.188-.188-.36-.188h-5.39c-.172 0-.344 0-.344.188 0 .203.172.203.344.203zm0 0" stroke="none"/></symbol><symbol id="e" overflow="visible"><path d="M2.938-6.375c0-.25 0-.266-.235-.266C2.078-6 1.203-6 .891-6v.313c.203 0 .78 0 1.296-.266v5.172c0 .36-.03.469-.921.469H.953V0c.344-.031 1.203-.031 1.61-.031.39 0 1.265 0 1.609.031v-.313h-.313c-.906 0-.921-.109-.921-.468zm0 0" stroke="none"/></symbol></defs><use y="134.765" x="223.432" xlink:href="#d" width="744.094" height="1052.362"/><use y="134.765" x="231.181" xlink:href="#e" width="744.094" height="1052.362"/></g><g ns0:text="$-2$" ns0:preamble="/home/waldgeist/data/sphinx/test.tex" transform="matrix(2.5424 0 0 2.5424 -342.957 216.068)"><defs><symbol overflow="visible" id="f"><path d="M6.563-2.297c.171 0 .359 0 .359-.203 0-.188-.188-.188-.36-.188h-5.39c-.172 0-.344 0-.344.188 0 .203.172.203.344.203zm0 0" stroke="none"/></symbol><symbol overflow="visible" id="g"><path d="M1.266-.766l1.062-1.03c1.547-1.376 2.14-1.907 2.14-2.907 0-1.14-.89-1.938-2.109-1.938C1.234-6.64.5-5.719.5-4.828c0 .547.5.547.531.547.172 0 .516-.11.516-.532a.513.513 0 0 0-.531-.515c-.079 0-.094 0-.125.016.218-.657.765-1.016 1.343-1.016.907 0 1.329.812 1.329 1.625 0 .797-.485 1.578-1.047 2.203L.609-.375C.5-.265.5-.235.5 0h3.703l.266-1.734h-.235C4.172-1.438 4.11-1 4-.844c-.063.078-.719.078-.938.078zm0 0" stroke="none"/></symbol></defs><use height="1052.362" width="744.094" xlink:href="#f" x="223.432" y="134.765"/><use height="1052.362" width="744.094" xlink:href="#g" x="231.181" y="134.765"/></g><g transform="matrix(2.5424 0 0 2.5424 -402.267 215.79)" ns0:preamble="/home/waldgeist/data/sphinx/test.tex" ns0:text="$-3$"><defs><symbol id="h" overflow="visible"><path d="M6.563-2.297c.171 0 .359 0 .359-.203 0-.188-.188-.188-.36-.188h-5.39c-.172 0-.344 0-.344.188 0 .203.172.203.344.203zm0 0" stroke="none"/></symbol><symbol id="i" overflow="visible"><path d="M2.89-3.516c.813-.265 1.391-.953 1.391-1.75 0-.812-.875-1.375-1.828-1.375-1 0-1.765.594-1.765 1.36 0 .328.218.515.515.515.297 0 .5-.218.5-.515 0-.485-.469-.485-.61-.485.298-.5.954-.625 1.313-.625.422 0 .969.22.969 1.11 0 .125-.031.703-.281 1.14-.297.485-.64.516-.89.516a3.29 3.29 0 0 1-.392.031c-.078.016-.14.031-.14.125 0 .11.062.11.234.11h.438c.812 0 1.187.671 1.187 1.656 0 1.36-.687 1.64-1.125 1.64-.437 0-1.187-.171-1.531-.75.344.047.656-.171.656-.546a.537.537 0 0 0-.547-.563c-.25 0-.562.14-.562.578C.422-.437 1.344.22 2.437.22c1.22 0 2.126-.906 2.126-1.922 0-.813-.641-1.594-1.672-1.813zm0 0" stroke="none"/></symbol></defs><use y="134.765" x="223.432" xlink:href="#h" width="744.094" height="1052.362"/><use y="134.765" x="231.181" xlink:href="#i" width="744.094" height="1052.362"/></g><g ns0:text="$-4$" ns0:preamble="/home/waldgeist/data/sphinx/test.tex" transform="matrix(2.5424 0 0 2.5424 -464.355 216.207)"><defs><symbol overflow="visible" id="j"><path d="M6.563-2.297c.171 0 .359 0 .359-.203 0-.188-.188-.188-.36-.188h-5.39c-.172 0-.344 0-.344.188 0 .203.172.203.344.203zm0 0" stroke="none"/></symbol><symbol overflow="visible" id="k"><path d="M2.938-1.64v.859c0 .36-.032.469-.766.469h-.203V0c.406-.031.922-.031 1.343-.031.422 0 .938 0 1.36.031v-.313h-.219c-.734 0-.75-.109-.75-.468v-.86h.985v-.312h-.985v-4.531c0-.204 0-.266-.172-.266-.078 0-.11 0-.187.125L.28-1.953v.312zm.046-.313H.563l2.421-3.719zm0 0" stroke="none"/></symbol></defs><use xlink:href="#j" x="223.432" y="134.765" width="744.094" height="1052.362"/><use xlink:href="#k" x="231.181" y="134.765" width="744.094" height="1052.362"/></g><g transform="matrix(2.5424 0 0 2.5424 -521.854 215.79)" ns0:preamble="/home/waldgeist/data/sphinx/test.tex" ns0:text="$-5$"><defs><symbol id="l" overflow="visible"><path d="M6.563-2.297c.171 0 .359 0 .359-.203 0-.188-.188-.188-.36-.188h-5.39c-.172 0-.344 0-.344.188 0 .203.172.203.344.203zm0 0" stroke="none"/></symbol><symbol id="m" overflow="visible"><path d="M4.469-2c0-1.188-.813-2.188-1.89-2.188-.47 0-.907.157-1.267.516v-1.953c.204.063.532.125.844.125 1.235 0 1.938-.906 1.938-1.031 0-.063-.032-.11-.11-.11 0 0-.03 0-.078.032a3.22 3.22 0 0 1-1.36.296c-.39 0-.858-.078-1.327-.28-.078-.032-.094-.032-.11-.032C1-6.625 1-6.547 1-6.391v2.954c0 .171 0 .25.14.25.079 0 .094-.016.141-.079.11-.156.469-.703 1.282-.703.515 0 .765.453.843.64.156.376.188.75.188 1.25 0 .36 0 .954-.25 1.376-.235.39-.61.64-1.063.64-.719 0-1.297-.53-1.469-1.109.032 0 .063.016.172.016.329 0 .5-.25.5-.485 0-.25-.171-.5-.5-.5-.14 0-.484.079-.484.532C.5-.75 1.188.219 2.297.219 3.453.219 4.469-.734 4.469-2zm0 0" stroke="none"/></symbol></defs><use y="134.765" x="223.432" xlink:href="#l" width="744.094" height="1052.362"/><use y="134.765" x="231.181" xlink:href="#m" width="744.094" height="1052.362"/></g><g ns0:text="$2$" ns0:preamble="/home/waldgeist/data/sphinx/test.tex" transform="matrix(2.5424 0 0 2.5424 -83.732 216.068)"><defs><symbol overflow="visible" id="n"><path d="M1.266-.766l1.062-1.03c1.547-1.376 2.14-1.907 2.14-2.907 0-1.14-.89-1.938-2.109-1.938C1.234-6.64.5-5.719.5-4.828c0 .547.5.547.531.547.172 0 .516-.11.516-.532a.513.513 0 0 0-.531-.515c-.079 0-.094 0-.125.016.218-.657.765-1.016 1.343-1.016.907 0 1.329.812 1.329 1.625 0 .797-.485 1.578-1.047 2.203L.609-.375C.5-.265.5-.235.5 0h3.703l.266-1.734h-.235C4.172-1.438 4.11-1 4-.844c-.063.078-.719.078-.938.078zm0 0" stroke="none"/></symbol></defs><use height="1052.362" width="744.094" transform="translate(-.019)" xlink:href="#n" x="223.432" y="134.765"/></g><g transform="matrix(2.5424 0 0 2.5424 -24.482 215.79)" ns0:preamble="/home/waldgeist/data/sphinx/test.tex" ns0:text="$3$"><defs><symbol id="o" overflow="visible"><path d="M2.89-3.516c.813-.265 1.391-.953 1.391-1.75 0-.812-.875-1.375-1.828-1.375-1 0-1.765.594-1.765 1.36 0 .328.218.515.515.515.297 0 .5-.218.5-.515 0-.485-.469-.485-.61-.485.298-.5.954-.625 1.313-.625.422 0 .969.22.969 1.11 0 .125-.031.703-.281 1.14-.297.485-.64.516-.89.516a3.29 3.29 0 0 1-.392.031c-.078.016-.14.031-.14.125 0 .11.062.11.234.11h.438c.812 0 1.187.671 1.187 1.656 0 1.36-.687 1.64-1.125 1.64-.437 0-1.187-.171-1.531-.75.344.047.656-.171.656-.546a.537.537 0 0 0-.547-.563c-.25 0-.562.14-.562.578C.422-.437 1.344.22 2.437.22c1.22 0 2.126-.906 2.126-1.922 0-.813-.641-1.594-1.672-1.813zm0 0" stroke="none"/></symbol></defs><use y="134.765" x="223.432" xlink:href="#o" width="744.094" height="1052.362"/></g><g ns0:text="$4$" ns0:preamble="/home/waldgeist/data/sphinx/test.tex" transform="matrix(2.5424 0 0 2.5424 33.62 216.207)"><defs><symbol overflow="visible" id="p"><path d="M2.938-1.64v.859c0 .36-.032.469-.766.469h-.203V0c.406-.031.922-.031 1.343-.031.422 0 .938 0 1.36.031v-.313h-.219c-.734 0-.75-.109-.75-.468v-.86h.985v-.312h-.985v-4.531c0-.204 0-.266-.172-.266-.078 0-.11 0-.187.125L.28-1.953v.312zm.046-.313H.563l2.421-3.719zm0 0" stroke="none"/></symbol></defs><use height="1052.362" width="744.094" xlink:href="#p" x="223.432" y="134.765"/></g><g transform="matrix(2.5424 0 0 2.5424 95.588 215.79)" ns0:preamble="/home/waldgeist/data/sphinx/test.tex" ns0:text="$5$"><defs><symbol id="q" overflow="visible"><path d="M4.469-2c0-1.188-.813-2.188-1.89-2.188-.47 0-.907.157-1.267.516v-1.953c.204.063.532.125.844.125 1.235 0 1.938-.906 1.938-1.031 0-.063-.032-.11-.11-.11 0 0-.03 0-.078.032a3.22 3.22 0 0 1-1.36.296c-.39 0-.858-.078-1.327-.28-.078-.032-.094-.032-.11-.032C1-6.625 1-6.547 1-6.391v2.954c0 .171 0 .25.14.25.079 0 .094-.016.141-.079.11-.156.469-.703 1.282-.703.515 0 .765.453.843.64.156.376.188.75.188 1.25 0 .36 0 .954-.25 1.376-.235.39-.61.64-1.063.64-.719 0-1.297-.53-1.469-1.109.032 0 .063.016.172.016.329 0 .5-.25.5-.485 0-.25-.171-.5-.5-.5-.14 0-.484.079-.484.532C.5-.75 1.188.219 2.297.219 3.453.219 4.469-.734 4.469-2zm0 0" stroke="none"/></symbol></defs><use y="134.765" x="223.432" xlink:href="#q" width="744.094" height="1052.362"/></g></g><g fill="#4d4d4d" stroke="green" stroke-width="1.18"><g ns0:text="$-1$" ns0:preamble="/home/waldgeist/data/sphinx/test.tex"><use height="1052.362" width="744.094" xlink:href="#d" x="223.432" y="134.765" transform="matrix(2.5424 0 0 2.5424 -245.004 251.833)"/><use height="1052.362" width="744.094" xlink:href="#e" x="231.181" y="134.765" transform="matrix(2.5424 0 0 2.5424 -245.004 251.833)"/></g><g ns0:preamble="/home/waldgeist/data/sphinx/test.tex" ns0:text="$-2$"><use y="134.765" x="223.432" xlink:href="#f" width="744.094" height="1052.362" transform="matrix(2.5424 0 0 2.5424 -245.759 311.615)"/><use y="134.765" x="231.181" xlink:href="#g" width="744.094" height="1052.362" transform="matrix(2.5424 0 0 2.5424 -245.759 311.615)"/></g><g ns0:text="$-3$" ns0:preamble="/home/waldgeist/data/sphinx/test.tex"><use height="1052.362" width="744.094" xlink:href="#h" x="223.432" y="134.765" transform="matrix(2.5424 0 0 2.5424 -245.997 371.118)"/><use height="1052.362" width="744.094" xlink:href="#i" x="231.181" y="134.765" transform="matrix(2.5424 0 0 2.5424 -245.997 371.118)"/></g><g ns0:preamble="/home/waldgeist/data/sphinx/test.tex" ns0:text="$-4$"><use height="1052.362" width="744.094" y="134.765" x="223.432" xlink:href="#j" transform="matrix(2.5424 0 0 2.5424 -246.315 431.317)"/><use height="1052.362" width="744.094" y="134.765" x="231.181" xlink:href="#k" transform="matrix(2.5424 0 0 2.5424 -246.315 431.317)"/></g><g ns0:text="$-5$" ns0:preamble="/home/waldgeist/data/sphinx/test.tex"><use height="1052.362" width="744.094" xlink:href="#l" x="223.432" y="134.765" transform="matrix(2.5424 0 0 2.5424 -245.759 490.682)"/><use height="1052.362" width="744.094" xlink:href="#m" x="231.181" y="134.765" transform="matrix(2.5424 0 0 2.5424 -245.759 490.682)"/></g><use height="1052.362" width="744.094" y="134.765" x="223.432" xlink:href="#c" transform="matrix(2.5424 0 0 2.5424 -225.303 132.27)" ns0:preamble="/home/waldgeist/data/sphinx/test.tex" ns0:text="$1$"/><use y="134.765" x="223.432" xlink:href="#n" transform="matrix(2.5424 0 0 2.5424 -226.058 72.488)" width="744.094" height="1052.362" ns0:preamble="/home/waldgeist/data/sphinx/test.tex" ns0:text="$2$"/><use height="1052.362" width="744.094" xlink:href="#o" x="223.432" y="134.765" transform="matrix(2.5424 0 0 2.5424 -226.296 12.428)" ns0:text="$3$" ns0:preamble="/home/waldgeist/data/sphinx/test.tex"/><use y="134.765" x="223.432" xlink:href="#p" width="744.094" height="1052.362" transform="matrix(2.5424 0 0 2.5424 -226.614 -46.937)" ns0:preamble="/home/waldgeist/data/sphinx/test.tex" ns0:text="$4$"/><use height="1052.362" width="744.094" xlink:href="#q" x="223.432" y="134.765" transform="matrix(2.5424 0 0 2.5424 -226.058 -107.135)" ns0:text="$5$" ns0:preamble="/home/waldgeist/data/sphinx/test.tex"/></g><use height="1052.362" width="744.094" transform="rotate(-90 371.139 526.181)" xlink:href="#r"/><g stroke="gray" fill="none" stroke-width="3" stroke-linecap="round"><path d="M454.833 490.312l11.957-11.956M466.79 490.312l-11.957-11.956"/></g><g stroke="gray" fill="none" stroke-width="3" stroke-linecap="round"><path d="M634.178 388.683l11.957-11.956M646.135 388.683l-11.957-11.956"/></g><path d="M460.811 484.334l179.346-101.63" fill="none" stroke="#000" stroke-width="3" stroke-linecap="round" marker-end="url(#s)"/><g ns0:preamble="/home/waldgeist/data/sphinx/inkscape-preamble.tex" ns0:text="$\\vec{a}_{\\rm{12}}$" transform="matrix(3.49855 0 0 3.49855 -218.85 -17.846)"><defs><symbol id="t" overflow="visible"><path d="M5.36-5.938c-.141.141-.47.422-.47.594 0 .094.094.203.188.203s.14-.078.203-.14c.11-.14.344-.422.782-.64.062-.048.171-.095.171-.204 0-.11-.078-.156-.14-.203a1.034 1.034 0 0 1-.407-.563c-.03-.093-.062-.234-.203-.234-.14 0-.203.14-.203.219 0 .047.078.36.235.578h-3.36c-.156 0-.344 0-.344.203 0 .188.188.188.344.188zm0 0"/></symbol><symbol id="u" overflow="visible"><path d="M3.719-3.766c-.188-.375-.469-.64-.922-.64-1.156 0-2.39 1.468-2.39 2.922C.406-.547.952.109 1.718.109c.203 0 .703-.046 1.297-.75a.91.91 0 0 0 .906.75c.36 0 .578-.234.75-.546a6.49 6.49 0 0 0 .297-.985c0-.11-.094-.11-.125-.11-.094 0-.11.048-.14.188-.173.64-.345 1.235-.75 1.235-.282 0-.298-.266-.298-.454 0-.218.016-.312.125-.75.11-.406.125-.515.219-.89l.36-1.39c.062-.282.062-.298.062-.345 0-.171-.11-.265-.281-.265-.25 0-.391.219-.422.437zm-.64 2.579c-.063.187-.063.203-.204.375-.438.546-.844.703-1.125.703-.5 0-.64-.547-.64-.938 0-.5.312-1.719.546-2.187.313-.579.75-.954 1.157-.954.64 0 .78.813.78.875a.562.562 0 0 1-.03.172zm0 0"/></symbol><symbol id="v" overflow="visible"><path d="M2.328-4.438c0-.187 0-.187-.203-.187-.453.438-1.078.438-1.36.438v.25c.157 0 .626 0 1-.188v3.547c0 .234 0 .328-.687.328H.812V0c.125 0 .985-.031 1.235-.031.219 0 1.094.031 1.25.031v-.25H3.03c-.703 0-.703-.094-.703-.328zm0 0"/></symbol><symbol id="w" overflow="visible"><path d="M3.516-1.266H3.28c-.015.157-.094.563-.187.625-.047.047-.578.047-.688.047H1.125c.734-.64.984-.844 1.39-1.172.516-.406 1-.843 1-1.5 0-.843-.734-1.359-1.624-1.359-.86 0-1.454.61-1.454 1.25 0 .344.297.39.376.39.156 0 .359-.124.359-.374 0-.125-.047-.375-.406-.375.218-.485.687-.641 1.015-.641.703 0 1.063.547 1.063 1.11 0 .609-.438 1.078-.656 1.328L.516-.266C.437-.203.437-.187.437 0h2.876zm0 0"/></symbol></defs><use y="134.765" x="222.808" xlink:href="#t" width="744.094" height="1052.362"/><use y="134.765" x="223.436" xlink:href="#u" width="744.094" height="1052.362"/><use y="136.259" x="228.698" xlink:href="#v" width="744.094" height="1052.362"/><use y="136.259" x="232.67" xlink:href="#w" width="744.094" height="1052.362"/></g><g ns0:text="$A_{\\rm{2}}$" ns0:preamble="/home/waldgeist/data/sphinx/inkscape-preamble.tex" transform="matrix(3.49855 0 0 3.49855 -152.668 -100.627)" fill="gray"><defs><symbol overflow="visible" id="x"><path d="M1.781-1.14C1.391-.485 1-.345.563-.314c-.125.016-.22.016-.22.204 0 .062.063.109.141.109.266 0 .579-.031.844-.031.344 0 .688.031 1 .031.063 0 .188 0 .188-.188 0-.109-.079-.124-.157-.124-.218-.016-.468-.094-.468-.344 0-.125.062-.235.14-.375l.766-1.266h2.5c.016.203.156 1.563.156 1.656 0 .297-.516.329-.719.329-.14 0-.234 0-.234.203C4.5 0 4.61 0 4.64 0c.407 0 .829-.031 1.235-.031.25 0 .89.031 1.14.031.048 0 .173 0 .173-.203 0-.11-.094-.11-.235-.11-.61 0-.61-.062-.64-.359l-.61-6.219c-.016-.203-.016-.25-.187-.25-.157 0-.204.079-.266.172zm1.203-1.47l1.954-3.296.328 3.297zm0 0"/></symbol><symbol overflow="visible" id="y"><path d="M3.516-1.266H3.28c-.015.157-.094.563-.187.625-.047.047-.578.047-.688.047H1.125c.734-.64.984-.844 1.39-1.172.516-.406 1-.843 1-1.5 0-.843-.734-1.359-1.624-1.359-.86 0-1.454.61-1.454 1.25 0 .344.297.39.376.39.156 0 .359-.124.359-.374 0-.125-.047-.375-.406-.375.218-.485.687-.641 1.015-.641.703 0 1.063.547 1.063 1.11 0 .609-.438 1.078-.656 1.328L.516-.266C.437-.203.437-.187.437 0h2.876zm0 0"/></symbol></defs><use height="1052.362" width="744.094" xlink:href="#x" x="223.432" y="134.765"/><use height="1052.362" width="744.094" xlink:href="#y" x="230.904" y="136.259"/></g><g transform="matrix(3.49855 0 0 3.49855 -344.68 -2.28)" ns0:preamble="/home/waldgeist/data/sphinx/inkscape-preamble.tex" ns0:text="$A_{\\rm{1}}$" fill="gray"><defs><symbol id="z" overflow="visible"><path d="M1.781-1.14C1.391-.485 1-.345.563-.314c-.125.016-.22.016-.22.204 0 .062.063.109.141.109.266 0 .579-.031.844-.031.344 0 .688.031 1 .031.063 0 .188 0 .188-.188 0-.109-.079-.124-.157-.124-.218-.016-.468-.094-.468-.344 0-.125.062-.235.14-.375l.766-1.266h2.5c.016.203.156 1.563.156 1.656 0 .297-.516.329-.719.329-.14 0-.234 0-.234.203C4.5 0 4.61 0 4.64 0c.407 0 .829-.031 1.235-.031.25 0 .89.031 1.14.031.048 0 .173 0 .173-.203 0-.11-.094-.11-.235-.11-.61 0-.61-.062-.64-.359l-.61-6.219c-.016-.203-.016-.25-.187-.25-.157 0-.204.079-.266.172zm1.203-1.47l1.954-3.296.328 3.297zm0 0"/></symbol><symbol id="A" overflow="visible"><path d="M2.328-4.438c0-.187 0-.187-.203-.187-.453.438-1.078.438-1.36.438v.25c.157 0 .626 0 1-.188v3.547c0 .234 0 .328-.687.328H.812V0c.125 0 .985-.031 1.235-.031.219 0 1.094.031 1.25.031v-.25H3.03c-.703 0-.703-.094-.703-.328zm0 0"/></symbol></defs><use y="134.765" x="223.432" xlink:href="#z" width="744.094" height="1052.362"/><use y="136.259" x="230.904" xlink:href="#A" width="744.094" height="1052.362"/></g></svg>