<svg xmlns:ns0="http://www.iki.fi/pav/software/textext/" xmlns="http://www.w3.org/2000/svg" xmlns:xlink="http://www.w3.org/1999/xlink" height="744.094" width="1052.362"><title>Vektor-Subtraktion (Gleiche Wirkungslinie)</title><defs><marker orient="auto" id="a" overflow="visible"><path d="M8.719 4.034L-2.207.016 8.719-4.002c-1.746 2.372-1.736 5.618 0 8.036z" transform="scale(-.6)" fill-rule="evenodd" stroke-width=".625" stroke-linejoin="round"/></marker></defs><g transform="translate(0 -308.268)"><use transform="translate(-690.002 115.427) scale(3.49978)" height="1052.362" width="744.094" xlink:href="#textext-28c1ecfe-0" x="223.432" y="134.765"/><use transform="translate(-200.574 -112.91) scale(3.49978)" height="1052.362" width="744.094" xlink:href="#textext-28c1ecfe-0" x="223.432" y="134.765"/><use transform="translate(-200.574 -112.91) scale(3.49978)" height="1052.362" width="744.094" xlink:href="#textext-28c1ecfe-0" x="223.432" y="134.765"/><path fill="#fff" stroke="#fff" stroke-width="3" stroke-linecap="square" d="M124.647 526.683h803.068v307.265H124.647z"/><g fill="none" stroke="#000" stroke-width="1.5"><path d="M142.822 662.598h209.601" marker-end="url(#a)" transform="translate(75.227 124.016)"/><path d="M216.96 779.528V793.7M252.393 779.528V793.7M287.826 779.528V793.7M323.259 779.528V793.7M358.692 779.528V793.7M394.125 779.528V793.7M216.96 775.984v21.26" stroke-linecap="round"/></g><g transform="matrix(5.09346 0 0 5.09346 -991.64 112.888)" ns0:preamble="/home/waldgeist/data/sphinx/inkscape-preamble.tex" ns0:text="=" fill="green"><defs><symbol id="b" overflow="visible"><path d="M6.844-3.266c.156 0 .343 0 .343-.187 0-.203-.187-.203-.328-.203H.891c-.141 0-.329 0-.329.203 0 .187.188.187.329.187zm.015 1.938c.141 0 .329 0 .329-.203 0-.188-.188-.188-.344-.188H.89c-.141 0-.329 0-.329.188 0 .203.188.203.329.203zm0 0"/></symbol></defs><use y="134.765" x="223.432" xlink:href="#b" width="744.094" height="1052.362"/></g><g fill="none" stroke="#000" stroke-width="1.5"><path d="M141.732 450h529.589" marker-end="url(#a)" transform="translate(75.227 124.016)"/><path d="M394.125 566.93v14.172M429.558 566.93v14.172M464.99 566.93v14.172M500.424 566.93v14.172M535.857 566.93v14.172M571.29 566.93v14.172M606.723 566.93v14.172M642.156 566.93v14.172M677.59 566.93v14.172M713.022 566.93v14.172M216.96 563.386v21.26M358.692 566.93v14.172M323.259 566.93v14.172M287.826 566.93v14.172M252.392 566.93v14.172" stroke-linecap="round"/></g><g transform="matrix(5.09346 0 0 4.41557 -338.498 -10.044)" ns0:preamble="/home/waldgeist/data/sphinx/inkscape-preamble.tex" ns0:text="$-$" fill="navy"><defs><symbol id="c" overflow="visible"><path d="M6.563-2.297c.171 0 .359 0 .359-.203 0-.188-.188-.188-.36-.188h-5.39c-.172 0-.344 0-.344.188 0 .203.172.203.344.203zm0 0"/></symbol></defs><use y="134.765" x="223.432" xlink:href="#c" width="1052.362" height="744.094"/></g><g fill="none" stroke="#000" stroke-width="1.5"><path d="M459.621 673.228v14.174M424.188 673.228v14.174M388.755 673.228v14.174M495.054 669.685v21.26" stroke-linecap="round"/><path d="M444.33 316.88h139.778" marker-end="url(#a)" transform="matrix(-1 0 0 1 939.385 363.498)"/></g><path d="M533.612 681.31h14.167c.716 0 1.67 0 1.67-1.035 0-.955-.954-.955-1.67-.955h-14.167v-14.246c0-.716 0-1.67-1.034-1.67-1.035 0-1.035.954-1.035 1.67v14.246h-14.166c-.716 0-1.671 0-1.671.955 0 1.035.955 1.035 1.67 1.035h14.167v14.246c0 .716 0 1.67 1.035 1.67 1.034 0 1.034-.954 1.034-1.67zm0 0" ns0:text="+" ns0:preamble="/home/waldgeist/data/sphinx/inkscape-preamble.tex" fill="maroon"/><g fill="none" stroke="#000" stroke-width="1.5"><path d="M675.682 673.228v14.174M640.249 673.228v14.174M604.816 673.228v14.174M746.548 669.685v21.26" stroke-linecap="round"/><path d="M566.93 556.362h175.21" marker-end="url(#a)" transform="matrix(-1 0 0 1 1313.477 124.016)"/><path d="M711.115 673.228v14.174M675.682 673.228v14.174M640.249 673.228v14.174M604.816 673.228v14.174M746.548 669.685v21.26M711.115 673.228v14.174" stroke-linecap="round"/></g><g transform="matrix(5.09346 0 0 4.41557 -821.445 96.256)" ns0:preamble="/home/waldgeist/data/sphinx/inkscape-preamble.tex" ns0:text="$($" fill="purple"><defs><symbol id="d" overflow="visible"><path d="M3.297 2.39c0-.03 0-.046-.172-.218C1.891.922 1.562-.968 1.562-2.5c0-1.734.375-3.469 1.61-4.703.125-.125.125-.14.125-.172 0-.078-.031-.11-.094-.11-.11 0-1 .688-1.594 1.954C1.11-4.438.984-3.328.984-2.5c0 .781.11 1.984.657 3.125C2.25 1.844 3.094 2.5 3.203 2.5c.063 0 .094-.031.094-.11zm0 0"/></symbol></defs><use y="134.765" x="223.432" xlink:href="#d" width="1052.362" height="744.094"/></g><g ns0:text="$)$" ns0:preamble="/home/waldgeist/data/sphinx/inkscape-preamble.tex" transform="matrix(5.09346 0 0 4.41557 -373.707 96.256)" fill="purple"><defs><symbol overflow="visible" id="e"><path d="M2.875-2.5c0-.766-.11-1.969-.656-3.11C1.625-6.827.766-7.483.672-7.483a.107.107 0 0 0-.11.109c0 .031 0 .047.188.234.984.985 1.547 2.563 1.547 4.641 0 1.719-.36 3.469-1.594 4.719-.14.125-.14.14-.14.172 0 .062.046.109.109.109.094 0 1-.688 1.578-1.953.516-1.094.625-2.203.625-3.047zm0 0"/></symbol></defs><use height="744.094" width="1052.362" xlink:href="#e" x="223.432" y="134.765"/></g></g></svg>