<svg xmlns:ns0="http://www.iki.fi/pav/software/textext/" xmlns="http://www.w3.org/2000/svg" xmlns:xlink="http://www.w3.org/1999/xlink" height="744.094" width="1052.362"><title>Vektor-Addition (Gleiche Wirkungslinie)</title><defs><marker orient="auto" id="a" overflow="visible"><path d="M8.719 4.034L-2.207.016 8.719-4.002c-1.746 2.372-1.736 5.618 0 8.036z" transform="scale(-.6)" fill-rule="evenodd" stroke-width=".625" stroke-linejoin="round"/></marker></defs><g transform="translate(0 -308.268)"><use transform="translate(-690.002 115.427) scale(3.49978)" height="1052.362" width="744.094" xlink:href="#textext-28c1ecfe-0" x="223.432" y="134.765"/><use transform="translate(-200.574 -112.91) scale(3.49978)" height="1052.362" width="744.094" xlink:href="#textext-28c1ecfe-0" x="223.432" y="134.765"/><use transform="translate(-200.574 -112.91) scale(3.49978)" height="1052.362" width="744.094" xlink:href="#textext-28c1ecfe-0" x="223.432" y="134.765"/><path fill="#fff" stroke="#fff" stroke-width="3" stroke-linecap="square" d="M166.889 542.845h718.583v274.94H166.889z"/><g fill="none" stroke="#000" stroke-width="1.5"><path d="M196.3 316.817h69.5" marker-end="url(#a)" transform="translate(40.329 322.891)"/><path d="M236.628 629.078v21.26M272.061 632.621v14.173" stroke-linecap="round"/></g><g fill="none" stroke="#000" stroke-width="1.5"><path d="M402.526 632.621v14.173M437.96 632.621v14.173M473.393 632.621v14.173" stroke-linecap="round"/><path d="M302.598 316.817h104.344" marker-end="url(#a)" transform="translate(99.928 322.891)"/><path d="M402.526 629.078v21.26" stroke-linecap="round"/></g><g fill="none" stroke="#000" stroke-width="1.5"><path d="M647.372 632.621v14.173M682.805 632.621v14.173M718.238 632.621v14.173M611.939 629.078v21.26" stroke-linecap="round"/><path d="M444.33 316.88h139.778" marker-end="url(#a)" transform="translate(167.608 322.891)"/></g><g fill="none" stroke="#000" stroke-width="1.5"><path d="M267.165 387.683h316.99" marker-end="url(#a)" transform="translate(106.18 338.771)"/><path d="M408.778 719.368v14.173M444.211 719.368v14.173M479.644 719.368v14.173M515.077 719.368v14.173M550.51 719.368v14.173M585.943 719.368v14.173M621.377 719.368v14.173M656.81 719.368v14.173M373.345 715.824v21.26" stroke-linecap="round"/></g><g transform="matrix(5.09346 0 0 5.09346 -798.593 -34.018)" ns0:text="+" ns0:preamble="/home/waldgeist/data/sphinx/inkscape-preamble.tex" fill="maroon"><defs><symbol overflow="visible" id="b"><path d="M4.078-2.297H6.86c.141 0 .329 0 .329-.203 0-.188-.188-.188-.329-.188H4.08v-2.796c0-.141 0-.329-.204-.329-.203 0-.203.188-.203.329v2.796H.89c-.141 0-.329 0-.329.188 0 .203.188.203.329.203h2.78V.5c0 .14 0 .328.204.328.203 0 .203-.187.203-.328zm0 0"/></symbol></defs><use height="1052.362" width="744.094" xlink:href="#b" x="223.432" y="134.765"/></g><use y="134.765" x="223.432" xlink:href="#b" width="744.094" height="1052.362" transform="matrix(5.09346 0 0 5.09346 -601.613 -34.018)" ns0:preamble="/home/waldgeist/data/sphinx/inkscape-preamble.tex" ns0:text="+" fill="maroon"/><g transform="matrix(5.09346 0 0 5.09346 -358.166 -34.018)" ns0:preamble="/home/waldgeist/data/sphinx/inkscape-preamble.tex" ns0:text="=" fill="green"><defs><symbol id="c" overflow="visible"><path d="M6.844-3.266c.156 0 .343 0 .343-.187 0-.203-.187-.203-.328-.203H.891c-.141 0-.329 0-.329.203 0 .187.188.187.329.187zm.015 1.938c.141 0 .329 0 .329-.203 0-.188-.188-.188-.344-.188H.89c-.141 0-.329 0-.329.188 0 .203.188.203.329.203zm0 0"/></symbol></defs><use y="134.765" x="223.432" xlink:href="#c" width="744.094" height="1052.362"/></g></g></svg>