<svg xmlns:ns0="http://www.iki.fi/pav/software/textext/" xmlns="http://www.w3.org/2000/svg" xmlns:xlink="http://www.w3.org/1999/xlink" width="744.094" height="1052.362"><title>Differentialquotient</title><defs><marker id="a" orient="auto" overflow="visible"><path d="M2.308 0l-3.46 2v-4l3.46 2z" fill-rule="evenodd" stroke="#000" stroke-width=".4pt"/></marker></defs><path style="marker:none" color="#000" fill="#fff" stroke="#fff" stroke-linecap="round" stroke-linejoin="round" stroke-dasharray="1.00000002,2.99999998" overflow="visible" d="M19.972 231.933h704.15v588.495H19.972z"/><path d="M186.459 762.272h495.258M186.459 762.272V267.014" fill="none" stroke="#000" stroke-width="2" marker-end="url(#a)"/><path d="M244.96 696.625c120.205-1.113 227.305-126.447 326.567-326.088 12.928-26.002 25.723-53.264 38.397-81.677M244.83 696.625c-19.824-.184-39.293-3.746-58.429-10.464" fill="none" stroke="green" stroke-width="3.362" stroke-linecap="round"/><path d="M313.958 682.118v80.091" fill="none" stroke="#000" stroke-linecap="round" stroke-dasharray="1.00000002,3.00000005"/><g transform="translate(-262.176 442.759) scale(2.53318)" ns0:preamble="/home/waldgeist/data/sphinx/inkscape-preamble.tex" ns0:text="$x_0$\n" fill="#4d4d4d"><defs><symbol id="b" overflow="visible"><path d="M3.328-3.016c.063-.25.297-1.171.985-1.171.046 0 .296 0 .5.125a.578.578 0 0 0-.47.546c0 .157.11.344.376.344a.546.546 0 0 0 .531-.578c0-.516-.578-.656-.922-.656-.578 0-.922.531-1.047.75-.25-.656-.781-.75-1.078-.75-1.031 0-1.61 1.281-1.61 1.531 0 .11.11.11.126.11.078 0 .11-.032.125-.11.344-1.063 1-1.313 1.344-1.313.187 0 .53.094.53.672 0 .313-.171.97-.53 2.375-.157.61-.516 1.032-.954 1.032-.062 0-.28 0-.5-.125.25-.063.47-.266.47-.547 0-.266-.22-.344-.36-.344-.313 0-.547.25-.547.578 0 .453.484.656.922.656.672 0 1.031-.703 1.047-.75.125.36.484.75 1.078.75 1.031 0 1.594-1.28 1.594-1.53 0-.11-.079-.11-.11-.11-.094 0-.11.047-.14.11-.329 1.077-1 1.312-1.313 1.312-.39 0-.547-.313-.547-.657 0-.218.047-.437.156-.875zm0 0"/></symbol><symbol id="c" overflow="visible"><path d="M3.594-2.219c0-.765-.094-1.328-.406-1.812-.22-.313-.657-.594-1.204-.594C.36-4.625.36-2.719.36-2.219c0 .5 0 2.36 1.625 2.36 1.61 0 1.61-1.86 1.61-2.36zM1.984-.063c-.328 0-.75-.187-.89-.75C1-1.219 1-1.796 1-2.313c0-.515 0-1.046.094-1.421.156-.547.593-.704.89-.704.375 0 .735.235.86.641.11.375.125.875.125 1.485 0 .515 0 1.03-.094 1.468-.14.64-.61.781-.89.781zm0 0"/></symbol></defs><g fill="#000"><use y="134.765" x="223.432" xlink:href="#b" width="744.094" height="1052.362"/><use y="136.259" x="229.126" xlink:href="#c" width="744.094" height="1052.362"/></g></g><g ns0:text="$x$ \n" ns0:preamble="/home/waldgeist/data/sphinx/inkscape-preamble.tex" transform="matrix(3.0772 0 0 3.0772 -16.866 374.55)" fill="#4d4d4d"><defs><symbol overflow="visible" id="d"><path d="M3.328-3.016c.063-.25.297-1.171.985-1.171.046 0 .296 0 .5.125a.578.578 0 0 0-.47.546c0 .157.11.344.376.344a.546.546 0 0 0 .531-.578c0-.516-.578-.656-.922-.656-.578 0-.922.531-1.047.75-.25-.656-.781-.75-1.078-.75-1.031 0-1.61 1.281-1.61 1.531 0 .11.11.11.126.11.078 0 .11-.032.125-.11.344-1.063 1-1.313 1.344-1.313.187 0 .53.094.53.672 0 .313-.171.97-.53 2.375-.157.61-.516 1.032-.954 1.032-.062 0-.28 0-.5-.125.25-.063.47-.266.47-.547 0-.266-.22-.344-.36-.344-.313 0-.547.25-.547.578 0 .453.484.656.922.656.672 0 1.031-.703 1.047-.75.125.36.484.75 1.078.75 1.031 0 1.594-1.28 1.594-1.53 0-.11-.079-.11-.11-.11-.094 0-.11.047-.14.11-.329 1.077-1 1.312-1.313 1.312-.39 0-.547-.313-.547-.657 0-.218.047-.437.156-.875zm0 0"/></symbol></defs><use height="1052.362" width="744.094" xlink:href="#d" x="223.432" y="134.765" fill="#000"/></g><path d="M632.807 682.118H186.459" fill="none" stroke="#000" stroke-linecap="round" stroke-dasharray="1.00000005,3.00000011"/><path d="M254.719 706.741l386.992-160.884" fill="none" stroke="#00f" stroke-width="2"/><g transform="translate(24.544 509.516) scale(2.0344)" ns0:preamble="/home/waldgeist/data/sphinx/inkscape-preamble.tex" ns0:text="$x_0 + \\Delta x$\n" fill="#4d4d4d"><defs><symbol id="e" overflow="visible"><path d="M3.328-3.016c.063-.25.297-1.171.985-1.171.046 0 .296 0 .5.125a.578.578 0 0 0-.47.546c0 .157.11.344.376.344a.546.546 0 0 0 .531-.578c0-.516-.578-.656-.922-.656-.578 0-.922.531-1.047.75-.25-.656-.781-.75-1.078-.75-1.031 0-1.61 1.281-1.61 1.531 0 .11.11.11.126.11.078 0 .11-.032.125-.11.344-1.063 1-1.313 1.344-1.313.187 0 .53.094.53.672 0 .313-.171.97-.53 2.375-.157.61-.516 1.032-.954 1.032-.062 0-.28 0-.5-.125.25-.063.47-.266.47-.547 0-.266-.22-.344-.36-.344-.313 0-.547.25-.547.578 0 .453.484.656.922.656.672 0 1.031-.703 1.047-.75.125.36.484.75 1.078.75 1.031 0 1.594-1.28 1.594-1.53 0-.11-.079-.11-.11-.11-.094 0-.11.047-.14.11-.329 1.077-1 1.312-1.313 1.312-.39 0-.547-.313-.547-.657 0-.218.047-.437.156-.875zm0 0"/></symbol><symbol id="f" overflow="visible"><path d="M3.594-2.219c0-.765-.094-1.328-.406-1.812-.22-.313-.657-.594-1.204-.594C.36-4.625.36-2.719.36-2.219c0 .5 0 2.36 1.625 2.36 1.61 0 1.61-1.86 1.61-2.36zM1.984-.063c-.328 0-.75-.187-.89-.75C1-1.219 1-1.796 1-2.313c0-.515 0-1.046.094-1.421.156-.547.593-.704.89-.704.375 0 .735.235.86.641.11.375.125.875.125 1.485 0 .515 0 1.03-.094 1.468-.14.64-.61.781-.89.781zm0 0"/></symbol><symbol id="g" overflow="visible"><path d="M4.078-2.297H6.86c.141 0 .329 0 .329-.203 0-.188-.188-.188-.329-.188H4.08v-2.796c0-.141 0-.329-.204-.329-.203 0-.203.188-.203.329v2.796H.89c-.141 0-.329 0-.329.188 0 .203.188.203.329.203h2.78V.5c0 .14 0 .328.204.328.203 0 .203-.187.203-.328zm0 0"/></symbol><symbol id="h" overflow="visible"><path d="M4.406-6.953c-.062-.14-.093-.188-.265-.188-.157 0-.188.047-.25.188L.516-.203c-.047.094-.047.11-.047.125C.469 0 .53 0 .688 0h6.921c.157 0 .22 0 .22-.078 0-.016 0-.031-.048-.125zm-.578.812L6.516-.75H1.14zm0 0"/></symbol></defs><g fill="#000"><use y="134.765" x="223.432" xlink:href="#e" width="744.094" height="1052.362"/><use y="136.259" x="229.126" xlink:href="#f" width="744.094" height="1052.362"/><use y="134.765" x="235.809" xlink:href="#g" width="744.094" height="1052.362"/><use y="134.765" x="245.77" xlink:href="#h" width="744.094" height="1052.362"/><use y="134.765" x="254.074" xlink:href="#e" width="744.094" height="1052.362"/></g></g><path style="marker:none" d="M442.955 628.583a139.665 139.665 0 0 1 10.667 53.251" color="#000" fill="none" stroke="#00f" stroke-width="2.0006651" stroke-linecap="round" overflow="visible"/><path d="M407.83 726.088a104.952 104.952 0 0 1 31.906 75.191l-104.952.169z" style="marker:none" opacity=".75" color="#000" fill="#fff" stroke="#00f" stroke-width="2.0006179800000004" stroke-linecap="round" overflow="visible"/><g ns0:text="$\\alpha _{\\rm{S}}$\n" ns0:preamble="/home/waldgeist/data/sphinx/inkscape-preamble.tex" transform="matrix(2.8787 0 0 2.8787 -238.583 279.032)" fill="#00f" stroke="#00f" stroke-width=".648"><defs><symbol overflow="visible" id="i"><path d="M4.75-2.36c0-1.562-.922-2.046-1.656-2.046-1.375 0-2.688 1.422-2.688 2.828C.406-.641 1 .109 2.031.109c.625 0 1.344-.234 2.094-.843.125.53.453.843.906.843.532 0 .844-.546.844-.703 0-.078-.063-.11-.125-.11-.063 0-.094.032-.125.11-.188.485-.547.485-.563.485-.312 0-.312-.782-.312-1.016 0-.203 0-.234.11-.344C5.796-2.656 6-3.812 6-3.812c0-.032-.016-.11-.125-.11-.094 0-.094.031-.14.219-.188.625-.516 1.375-.985 1.969zM4.094-.983c-.89.765-1.657.875-2.047.875-.594 0-.906-.454-.906-1.094 0-.484.265-1.563.578-2.063.468-.734 1.015-.921 1.36-.921.983 0 .983 1.312.983 2.078 0 .375 0 .953.032 1.125zm0 0" stroke="none"/></symbol><symbol overflow="visible" id="j"><path d="M1.734-2.906c-.609-.14-.796-.578-.796-.875 0-.453.421-.89 1.062-.89.938 0 1.344.624 1.453 1.359.016.093.016.14.125.14.11 0 .11-.047.11-.187v-1.36c0-.125 0-.187-.094-.187-.047 0-.063.031-.11.11l-.265.39c-.453-.469-1.031-.5-1.219-.5-.89 0-1.516.64-1.516 1.343 0 .391.172.688.422.922.281.266.516.313 1.266.485.64.14.781.172.984.36.156.171.297.39.297.702 0 .485-.406.985-1.062.985C1.703-.11.78-.375.719-1.422c0-.125 0-.156-.11-.156-.125 0-.125.047-.125.187v1.344c0 .125 0 .188.094.188C.641.14.656.125.703.063c.063-.094.203-.313.25-.407.438.39.985.485 1.438.485.906 0 1.515-.688 1.515-1.438 0-.625-.437-1.219-1.14-1.375zm0 0" stroke="none"/></symbol></defs><g stroke-width=".648"><use height="1052.362" width="744.094" xlink:href="#i" x="223.432" y="134.765"/><use height="1052.362" width="744.094" xlink:href="#j" x="229.805" y="136.259"/></g></g><g transform="translate(-465.7 -102.536) scale(2.79562)" ns0:preamble="/home/waldgeist/data/sphinx/inkscape-preamble.tex" ns0:text="$y$ \n" fill="#4d4d4d"><defs><symbol id="k" overflow="visible"><path d="M4.844-3.797c.047-.14.047-.156.047-.234 0-.172-.141-.266-.297-.266a.455.455 0 0 0-.344.203c-.016.063-.11.36-.14.547-.079.25-.141.531-.204.797L3.453-.953c-.031.14-.469.844-1.125.844-.5 0-.61-.438-.61-.813 0-.453.173-1.078.5-1.953.157-.406.204-.516.204-.719 0-.437-.313-.812-.813-.812-.953 0-1.312 1.453-1.312 1.531 0 .11.094.11.11.11.109 0 .109-.032.156-.188.28-.938.671-1.235 1.015-1.235.078 0 .25 0 .25.313 0 .25-.11.516-.172.703-.406 1.063-.578 1.625-.578 2.094 0 .89.625 1.187 1.219 1.187.39 0 .719-.171 1-.453-.125.516-.25 1.016-.64 1.547-.266.328-.641.625-1.095.625-.14 0-.593-.031-.765-.422.156 0 .297 0 .422-.125a.493.493 0 0 0 .203-.406c0-.313-.266-.344-.36-.344C.829.531.5.687.5 1.171c0 .5.438.876 1.063.876 1.015 0 2.046-.906 2.328-2.031zm0 0"/></symbol></defs><use y="134.765" x="223.432" xlink:href="#k" width="744.094" height="1052.362" fill="#000"/></g></svg>